<svg xmlns="http://www.w3.org/2000/svg" viewBox="0 0 115.8 115.7">
  <style type="text/css">.cls-1 {fill:#3BE4E3;}
.cls-2 {fill:#D11C6B;}</style>
  <g transform="translate(57.9,57.85) scale(0.85) translate(-57.9,-57.85)">
  <path class="cls-1" d="m96.7 56.8-1.8-0.5c-0.9-0.2-1-0.8-1.2-1.9s-0.1-1 0.7-1.7l1.4-1c0.2-0.2 0.3-0.4 0.2-0.7l-1-2.1c-0.1-0.3-0.3-0.4-0.5-0.3l-1.9 0.1c-1.1 0.1-1.2-0.5-1.9-1.3-0.5-0.9-0.5-1.2 0.2-2.2l0.6-1c0.1-0.2 0.1-0.5-0.1-0.7l-1.7-2-0.5-0.1-0.8 0.5c-0.7 0.4-1.6 1.1-2.5 0.4l-0.9-0.6c-0.8-0.6-0.7-1.5-0.4-3.5l-0.3-0.7-2.3-1h-0.4l-0.4 0.4-0.6 0.8c-0.7 1-1 1.2-2.1 0.9-1.1-0.2-1.5 0-2.1-2.9-0.1-0.3-0.3-0.5-0.7-0.5h-2.2c-0.6 0-0.7 0.3-0.8 0.7-0.4 2.1-0.7 2.5-1.5 2.7-1.4 0.3-2 0.5-2.9-0.8l-0.8-1.1c-0.4-0.6-3.3 0.7-3.4 0.9v0.5l0.2 1.9c0 1.1-0.5 1.4-1.5 2.1-0.8 0.5-1.7 0-3-0.7-0.2-0.1-0.6-0.1-0.8 0.2l-1.5 1.6c-0.1 0.2-0.1 0.5 0.1 0.8l0.6 1.1c0.6 0.9 0.4 1.4-0.5 2.6-0.4 1.1-1.5 0.8-3.2 0.8l-0.1 0.1 0.7 4.6 0.2 0.3 0.1 0.9 1.2 7 0.7-1.1c0.6-1 1.5-2 2.3-2.7 0.3-6.6 6.1-13.8 14.7-13.9 7.6-0.2 15.1 5.6 15 14.7 0 6.5-4.7 14.2-14.9 14.3-4.7 0.1-9.1-1.9-12.1-5.9l-2.3 7.8 1.2-0.6c1.1-0.7 1.8-0.1 2.7 0.6 0.9 0.6 0.3 2.1 0.3 3.2 0 0.3 0.2 0.5 0.4 0.6l2.2 0.9c0.2 0.1 0.6 0 0.7-0.2l1.3-1.5c0.6-0.9 2.2-0.4 2.4-0.3 1 0.4 0.9 0.9 1.5 2.9 0.1 0.3 0.2 0.5 0.8 0.5h2.1c0.5 0 0.6-0.2 0.6-0.5l0.5-1.8c0.2-0.8 1.1-1.2 2.1-1.2 0.9-0.1 1.2 0.4 1.5 0.6l1 1.4c0.2 0.2 0.3 0.4 0.7 0.3l2.1-0.8c0.8-0.3 0.4-0.7 0.3-2.9 0-0.8 0.7-1.2 1.5-1.8 0.7-0.4 1.1-0.2 3 1 0.3 0.1 0.6 0.2 0.8 0l1.6-1.6c0.2-0.2 0.3-0.5 0.1-0.7-1.4-2.3-1.4-2.2-0.8-3.1 0.7-1 0.8-1.4 1.8-1.2l1.8 0.2c0.3 0 0.5-0.1 0.6-0.4l1-2.2 0.1-0.3-0.3-0.3-1.3-1c-1-0.7-0.6-1.5-0.4-2.6 0.2-0.8 1-1 2.8-1.4 0.4-0.1 0.6-0.2 0.6-0.6v-2.3c0-0.5-0.2-0.6-0.6-0.7z"/>
  <path class="cls-1" d="m57.8 75-1.1 3.9c-1.1 4.2-6.7 4.7-7.6-0.3l-3.7-17.7c-0.1-0.6-0.9-0.5-1.4-0.5l0.6-3.4h1c1.5 0 2.8 1.3 3.2 3.1l3.5 16.7c1.4 5.1 1-4.7 5.5-1.8z"/>
  <path class="cls-1" d="m47.7 33.1c-1.5-0.1-3.1 0.8-3.8 2.9l-4.5 20.2c-1.7-3-5.4-3.6-7.4-0.3-1 1.4-1.7 1.8-3.1 1.8h-8.9c-0.9 0.1-1.6 0.8-1.6 1.7 0 1 0.8 1.7 1.7 1.7h9c2.5 0 4.7-0.9 6.1-3.4 0.7-1.1 0.9-0.4 2.2 2 1.4 2.5 4.7 2.1 5.2-0.8l4.5-21.4c0.8-2.3 1.9-4.4 0.6-4.4z"/>
  <path class="cls-2" d="m48.1 33.1c-1.2 0-2.3 1.2-1.4 2.7 0.5 0.9 0.7 2.2 1 3.9l5.7 32 0.6 2.6c0.7 2.3 3.3 2.4 4 0.3l0.7-2 2.4-8c0.8-2.7 3-4.2 5.7-4.3h9.9c1 0 1.8-0.7 1.8-1.7s-0.8-1.8-1.8-1.8h-9.9c-3.3 0-6.5 1.6-8 4.6-0.8 1.5-0.9 2.5-2.6 7.2l-4.9-29.6c-0.3-1.3-0.6-2.7-1.1-4.2-0.4-1-1.2-1.7-2.1-1.7z"/>
  </g>
</svg>
